<?xml version="1.0" encoding="UTF-8"?>
<svg width="400" height="300" xmlns="http://www.w3.org/2000/svg">
  <defs>
    <clipPath id="clip1"><rect x="60.00" y="36.00" width="292.00" height="219.00"/></clipPath>
  </defs>
  <rect x="0.00" y="0.00" width="400.00" height="300.00" fill="rgb(255,255,255)"/>
  <line x1="60.00" y1="36.00" x2="60.00" y2="255.00" stroke="rgba(204,204,204,0.298)" stroke-width="0.50"  stroke-linecap="round"/>
  <line x1="133.00" y1="36.00" x2="133.00" y2="255.00" stroke="rgba(204,204,204,0.298)" stroke-width="0.50"  stroke-linecap="round"/>
  <line x1="206.00" y1="36.00" x2="206.00" y2="255.00" stroke="rgba(204,204,204,0.298)" stroke-width="0.50"  stroke-linecap="round"/>
  <line x1="279.00" y1="36.00" x2="279.00" y2="255.00" stroke="rgba(204,204,204,0.298)" stroke-width="0.50"  stroke-linecap="round"/>
  <line x1="352.00" y1="36.00" x2="352.00" y2="255.00" stroke="rgba(204,204,204,0.298)" stroke-width="0.50"  stroke-linecap="round"/>
  <line x1="60.00" y1="241.81" x2="352.00" y2="241.81" stroke="rgba(204,204,204,0.298)" stroke-width="0.50"  stroke-linecap="round"/>
  <line x1="60.00" y1="191.58" x2="352.00" y2="191.58" stroke="rgba(204,204,204,0.298)" stroke-width="0.50"  stroke-linecap="round"/>
  <line x1="60.00" y1="141.35" x2="352.00" y2="141.35" stroke="rgba(204,204,204,0.298)" stroke-width="0.50"  stroke-linecap="round"/>
  <line x1="60.00" y1="91.12" x2="352.00" y2="91.12" stroke="rgba(204,204,204,0.298)" stroke-width="0.50"  stroke-linecap="round"/>
  <line x1="60.00" y1="40.89" x2="352.00" y2="40.89" stroke="rgba(204,204,204,0.298)" stroke-width="0.50"  stroke-linecap="round"/>
  <rect x="60.00" y="36.00" width="292.00" height="219.00" fill="none" stroke="rgb(0,0,0)" stroke-width="1"/>
  <line x1="60.00" y1="255.00" x2="352.00" y2="255.00" stroke="rgb(0,0,0)" stroke-width="1.50"  stroke-linecap="round"/>
  <line x1="60.00" y1="36.00" x2="60.00" y2="255.00" stroke="rgb(0,0,0)" stroke-width="1.50"  stroke-linecap="round"/>
  <line x1="60.00" y1="255.00" x2="60.00" y2="261.00" stroke="rgb(0,0,0)" stroke-width="1.00"  stroke-linecap="round"/>
  <line x1="133.00" y1="255.00" x2="133.00" y2="261.00" stroke="rgb(0,0,0)" stroke-width="1.00"  stroke-linecap="round"/>
  <line x1="206.00" y1="255.00" x2="206.00" y2="261.00" stroke="rgb(0,0,0)" stroke-width="1.00"  stroke-linecap="round"/>
  <line x1="279.00" y1="255.00" x2="279.00" y2="261.00" stroke="rgb(0,0,0)" stroke-width="1.00"  stroke-linecap="round"/>
  <line x1="352.00" y1="255.00" x2="352.00" y2="261.00" stroke="rgb(0,0,0)" stroke-width="1.00"  stroke-linecap="round"/>
  <line x1="60.00" y1="241.81" x2="54.00" y2="241.81" stroke="rgb(0,0,0)" stroke-width="1.00"  stroke-linecap="round"/>
  <line x1="60.00" y1="191.58" x2="54.00" y2="191.58" stroke="rgb(0,0,0)" stroke-width="1.00"  stroke-linecap="round"/>
  <line x1="60.00" y1="141.35" x2="54.00" y2="141.35" stroke="rgb(0,0,0)" stroke-width="1.00"  stroke-linecap="round"/>
  <line x1="60.00" y1="91.12" x2="54.00" y2="91.12" stroke="rgb(0,0,0)" stroke-width="1.00"  stroke-linecap="round"/>
  <line x1="60.00" y1="40.89" x2="54.00" y2="40.89" stroke="rgb(0,0,0)" stroke-width="1.00"  stroke-linecap="round"/>
  <text x="60.00" y="270.00" font-family="sans-serif" font-size="10.0" fill="rgb(0,0,0)" text-anchor="middle" dominant-baseline="central">0</text>
  <text x="133.00" y="270.00" font-family="sans-serif" font-size="10.0" fill="rgb(0,0,0)" text-anchor="middle" dominant-baseline="central">1</text>
  <text x="206.00" y="270.00" font-family="sans-serif" font-size="10.0" fill="rgb(0,0,0)" text-anchor="middle" dominant-baseline="central">2</text>
  <text x="279.00" y="270.00" font-family="sans-serif" font-size="10.0" fill="rgb(0,0,0)" text-anchor="middle" dominant-baseline="central">3</text>
  <text x="352.00" y="270.00" font-family="sans-serif" font-size="10.0" fill="rgb(0,0,0)" text-anchor="middle" dominant-baseline="central">4</text>
  <text x="52.00" y="241.81" font-family="sans-serif" font-size="10.0" fill="rgb(0,0,0)" text-anchor="end" dominant-baseline="central">0.33</text>
  <text x="52.00" y="191.58" font-family="sans-serif" font-size="10.0" fill="rgb(0,0,0)" text-anchor="end" dominant-baseline="central">0.33</text>
  <text x="52.00" y="141.35" font-family="sans-serif" font-size="10.0" fill="rgb(0,0,0)" text-anchor="end" dominant-baseline="central">0.33</text>
  <text x="52.00" y="91.12" font-family="sans-serif" font-size="10.0" fill="rgb(0,0,0)" text-anchor="end" dominant-baseline="central">0.33</text>
  <text x="52.00" y="40.89" font-family="sans-serif" font-size="10.0" fill="rgb(0,0,0)" text-anchor="end" dominant-baseline="central">0.33</text>
  <g clip-path="url(#clip1)">
  <polyline points="60.00,36.00 133.00,83.22 206.00,136.92 279.00,196.12 352.00,255.00" fill="none" stroke="rgb(31,119,180)" stroke-width="1.50" stroke-linecap="round" stroke-linejoin="round"/>
  </g>
  <text x="200.00" y="18.00" font-family="sans-serif" font-size="14.0" fill="rgb(0,0,0)" text-anchor="middle" dominant-baseline="central">Training Cost over Epochs</text>
  <text x="206.00" y="290.00" font-family="sans-serif" font-size="11.0" fill="rgb(0,0,0)" text-anchor="middle" dominant-baseline="central">Epochs</text>
  <text x="15.00" y="145.50" font-family="sans-serif" font-size="11.0" fill="rgb(0,0,0)" text-anchor="middle" dominant-baseline="central" transform="rotate(-90.0,15.00,145.50)">Cost (MSE; Adam)</text>
  <rect x="258.00" y="46.00" width="84.00" height="22.00" rx="4.00" ry="4.00" fill="rgba(255,255,255,0.800)"/>
  <rect x="258.00" y="46.00" width="84.00" height="22.00" rx="4.00" ry="4.00" fill="none" stroke="rgb(204,204,204)" stroke-width="1"/>
  <line x1="264.00" y1="57.00" x2="284.00" y2="57.00" stroke="rgb(31,119,180)" stroke-width="1.5" />
  <text x="294.00" y="57.00" font-family="sans-serif" font-size="10.0" fill="rgb(0,0,0)" dominant-baseline="central">Batch 0</text>
</svg>
